<?xml version="1.0" encoding="utf-8"?>
<!-- Generator: Adobe Illustrator 18.1.1, SVG Export Plug-In . SVG Version: 6.00 Build 0)  -->
<svg version="1.1" id="Layer" xmlns="http://www.w3.org/2000/svg" xmlns:xlink="http://www.w3.org/1999/xlink" x="0px" y="0px"
	 viewBox="160 1446 384 320" enable-background="new 160 1446 384 320" xml:space="preserve">
<path fill="#59B1FC" d="M528,1590H208.8L331,1473.6c6.4-6.1,6.6-16.2,0.6-22.6c-6.1-6.4-16.2-6.6-22.6-0.6l-139.6,133
	c-6,6-9.4,14.1-9.4,22.6c0,8.5,3.3,16.6,9.7,22.9L309,1761.6c3.1,3,7.1,4.4,11,4.4c4.2,0,8.4-1.7,11.6-5c6.1-6.4,5.8-16.5-0.6-22.6
	L208.3,1622H528c8.8,0,16-7.2,16-16S536.8,1590,528,1590L528,1590z"/>
</svg>
