<?xml version="1.0" encoding="utf-8"?>
<!-- Generator: Adobe Illustrator 18.1.1, SVG Export Plug-In . SVG Version: 6.00 Build 0)  -->
<svg version="1.1" id="Capa_1" xmlns="http://www.w3.org/2000/svg" xmlns:xlink="http://www.w3.org/1999/xlink" x="0px" y="0px"
	 viewBox="0 1466 320 278" enable-background="new 0 1466 320 278" xml:space="preserve">
<g>
	<g>
		<path fill="#59B1FC" d="M304.6,1592.1H12.9c-7.1,0-12.9,5.8-12.9,12.9s5.8,12.9,12.9,12.9h291.7c7.1,0,12.9-5.8,12.9-12.9
			S311.7,1592.1,304.6,1592.1z"/>
	</g>
</g>
<g>
	<g>
		<path fill="#59B1FC" d="M316.2,1595.9l-126.1-126.1c-5-5-13.2-5-18.2,0c-5,5-5,13.2,0,18.2l117,117l-117,117c-5,5-5,13.2,0,18.2
			c2.5,2.5,5.8,3.8,9.1,3.8s6.6-1.3,9.1-3.8l126.1-126.1C321.3,1609.1,321.3,1600.9,316.2,1595.9z"/>
	</g>
</g>
</svg>
