<svg xmlns="http://www.w3.org/2000/svg" width="42.339" height="29.83" viewBox="0 0 42.339 29.83"><path d="M875.3,6402.023a5.321,5.321,0,0,0-3.743-3.767c-3.3-.891-16.542-.891-16.542-.891s-13.239,0-16.541.891a5.318,5.318,0,0,0-3.743,3.767c-.885,3.323-.885,10.257-.885,10.257s0,6.934.885,10.257a5.318,5.318,0,0,0,3.743,3.767c3.3.891,16.541.891,16.541.891s13.24,0,16.542-.891a5.321,5.321,0,0,0,3.743-3.767c.885-3.323.885-10.257.885-10.257S876.182,6405.346,875.3,6402.023Zm-24.615,16.552v-12.59l11.066,6.295Z" transform="translate(-833.843 -6397.365)" fill="#fff"/></svg>