<svg xmlns="http://www.w3.org/2000/svg" width="39.636" height="31.706" viewBox="0 0 39.636 31.706"><path d="M443.781,6400.178a16.264,16.264,0,0,1-4.669,1.26,8.015,8.015,0,0,0,3.575-4.431,16.253,16.253,0,0,1-5.163,1.946,8.163,8.163,0,0,0-5.933-2.526,8.07,8.07,0,0,0-8.132,8.006,7.76,7.76,0,0,0,.212,1.82,23.177,23.177,0,0,1-16.763-8.364,7.939,7.939,0,0,0,2.516,10.688,8.265,8.265,0,0,1-3.686-1v.1a7.96,7.96,0,0,0,.555,2.9,8.132,8.132,0,0,0,5.969,4.95,8.266,8.266,0,0,1-2.143.283,7.636,7.636,0,0,1-1.527-.152,8.13,8.13,0,0,0,7.592,5.561,16.655,16.655,0,0,1-12.039,3.317,23.319,23.319,0,0,0,12.463,3.595,22.635,22.635,0,0,0,22.59-17.943,22.042,22.042,0,0,0,.55-4.834c0-.343,0-.686-.02-1.034a16.234,16.234,0,0,0,4.053-4.144" transform="translate(-404.145 -6396.427)" fill="#fff"/></svg>