<svg xmlns="http://www.w3.org/2000/svg" width="49.255" height="42.471" viewBox="0 0 49.255 42.471"><g transform="translate(-1119.068 -6391.045)"><path d="M1153.289,6405.011a17.477,17.477,0,0,0-11.777,4.756,13.986,13.986,0,0,0-4.343,11.847c-1.787-.222-3.415-.465-5.052-.6a3.133,3.133,0,0,0-1.715.29c-1.59.9-3.113,1.91-4.92,3.039.332-1.5.546-2.812.926-4.074a1.55,1.55,0,0,0-.7-2.049c-5.489-3.875-7.8-9.674-6.071-15.645,1.6-5.523,5.536-8.873,10.881-10.619a18.24,18.24,0,0,1,19.931,5.84,13.652,13.652,0,0,1,2.845,7.218Zm-21.044-1.861a2.107,2.107,0,0,0-2.028-2.108,2.048,2.048,0,0,0-2.131,1.979,2.024,2.024,0,0,0,2,2.1,2.081,2.081,0,0,0,2.154-1.971Zm10.979-2.109a2.11,2.11,0,0,0-2.061,2.078,2.059,2.059,0,0,0,2.116,2.011,2.045,2.045,0,1,0-.055-4.089Z" fill="#fff"/><path d="M1163.561,6433.516c-1.448-.645-2.776-1.612-4.19-1.76s-2.889.666-4.363.816a14.581,14.581,0,0,1-11.826-3.858c-6.307-5.833-5.405-14.777,1.891-19.557,6.485-4.249,15.995-2.833,20.567,3.062a11.682,11.682,0,0,1-1.35,16.294c-1.409,1.25-1.916,2.28-1.012,3.928a4.69,4.69,0,0,1,.283,1.075Zm-16.481-15.957a1.7,1.7,0,1,0,.013-3.407,1.7,1.7,0,1,0-.013,3.407Zm10.625-3.4a1.7,1.7,0,0,0-1.691,1.629,1.681,1.681,0,1,0,1.691-1.629Z" fill="#fff"/></g></svg>