<svg xmlns="http://www.w3.org/2000/svg" width="40.352" height="40.352" viewBox="0 0 40.352 40.352"><g transform="translate(-547.47 -6392.104)"><path d="M576.686,6392.1h-18.08a11.149,11.149,0,0,0-11.136,11.136v18.08a11.148,11.148,0,0,0,11.136,11.136h18.08a11.149,11.149,0,0,0,11.136-11.136v-18.08A11.149,11.149,0,0,0,576.686,6392.1Zm7.556,29.216a7.565,7.565,0,0,1-7.556,7.556h-18.08a7.565,7.565,0,0,1-7.556-7.556v-18.08a7.565,7.565,0,0,1,7.556-7.556h18.08a7.565,7.565,0,0,1,7.556,7.556Z" fill="#fff"/><path d="M567.646,6401.882a10.4,10.4,0,1,0,10.4,10.4A10.409,10.409,0,0,0,567.646,6401.882Zm0,17.216a6.818,6.818,0,1,1,6.818-6.818A6.826,6.826,0,0,1,567.646,6419.1Z" fill="#fff"/><path d="M578.48,6398.847a2.622,2.622,0,1,0,1.858.768A2.634,2.634,0,0,0,578.48,6398.847Z" fill="#fff"/></g></svg>