<svg id="interface" xmlns="http://www.w3.org/2000/svg" width="14.928" height="16.268" viewBox="0 0 14.928 16.268">
  <path id="Path_218" data-name="Path 218" d="M240.466,11.523a.489.489,0,0,1-.467-.508V.508a.468.468,0,1,1,.933,0V11.015A.489.489,0,0,1,240.466,11.523Zm0,0" transform="translate(-233.003)" fill="#fff"/>
  <path id="Path_219" data-name="Path 219" d="M157.626,249.045a.444.444,0,0,1-.33-.149l-2.488-2.711a.542.542,0,0,1,0-.719.44.44,0,0,1,.66,0l2.158,2.352,2.158-2.352a.44.44,0,0,1,.66,0,.542.542,0,0,1,0,.719l-2.488,2.711a.449.449,0,0,1-.331.149Zm0,0" transform="translate(-150.162 -237.522)" fill="#fff"/>
  <path id="Path_220" data-name="Path 220" d="M13.217,346.755H1.711A1.794,1.794,0,0,1,0,344.891v-3.05a.489.489,0,0,1,.466-.508.489.489,0,0,1,.466.508v3.05a.816.816,0,0,0,.778.847H13.217a.816.816,0,0,0,.778-.847v-3.05a.468.468,0,1,1,.933,0v3.05A1.794,1.794,0,0,1,13.217,346.755Zm0,0" transform="translate(0 -330.487)" fill="#fff"/>
</svg>
