<svg xmlns="http://www.w3.org/2000/svg" width="43.064" height="39.684" viewBox="0 0 43.064 39.684"><g transform="translate(-973.75 -6392.277)"><path d="M992.608,6429.168c.514-.035,1.386-.075,2.248-.161.56-.056,1.1-.141,1.644-.247a19.606,19.606,0,0,0,6.795-2.581,11.678,11.678,0,0,0,4.069-4.018,6.578,6.578,0,0,0,.368-6.4,8.651,8.651,0,0,0-3.186-3.5,16.736,16.736,0,0,0-7.85-2.546,22.064,22.064,0,0,0-4.2.036,21.779,21.779,0,0,0-5.132,1.129,15.669,15.669,0,0,0-6.3,3.922,7.986,7.986,0,0,0-2.39,5.047,6.521,6.521,0,0,0,1.306,4.29,10.545,10.545,0,0,0,4.245,3.347,19.615,19.615,0,0,0,8.384,1.684m1.88,2.793a33.893,33.893,0,0,1-9.221-1.4,21.57,21.57,0,0,1-7.1-3.534,11.116,11.116,0,0,1-4.038-5.546,9.442,9.442,0,0,1-.121-4.87,18.321,18.321,0,0,1,2.586-5.959,31.443,31.443,0,0,1,3.57-4.507,33.655,33.655,0,0,1,6.458-5.414,18.449,18.449,0,0,1,5.953-2.637,7.245,7.245,0,0,1,2.672-.146,3.356,3.356,0,0,1,3.04,3.327,9.059,9.059,0,0,1-.463,3.322l-.051.172c-.086.408.131.68.54.61a6.488,6.488,0,0,0,1.048-.313,19.707,19.707,0,0,1,5.072-1.371,7.716,7.716,0,0,1,4.083.368,3.2,3.2,0,0,1,2.093,2.848,7.066,7.066,0,0,1-.616,3.217c-.247.645-.11.963.555,1.159a11.9,11.9,0,0,1,3.574,1.714,6.329,6.329,0,0,1,2.506,3.57,6.793,6.793,0,0,1-.383,4.235,12.182,12.182,0,0,1-2.43,3.765,19.86,19.86,0,0,1-5.49,4.109,28.093,28.093,0,0,1-10.038,3c-1.26.146-2.53.191-3.8.277" fill="#fff"/><path d="M990.742,6395.908c-.6.081-1.291.151-1.982.262a1.813,1.813,0,0,1-2.072-1.653,1.778,1.778,0,0,1,1.563-1.941,12.831,12.831,0,0,1,2.632-.3,14.058,14.058,0,0,1,3.665.56,12.917,12.917,0,0,1,8.434,7.638,13.259,13.259,0,0,1,.887,4.285,13.549,13.549,0,0,1-.605,4.426,1.837,1.837,0,0,1-3.539-.973c.156-.67.323-1.346.419-2.032a8.087,8.087,0,0,0-.111-2.8,9.371,9.371,0,0,0-7.885-7.335c-.434-.055-.867-.08-1.406-.136" fill="#fff"/><path d="M993.41,6399a6.22,6.22,0,0,1,6.281,5.636,6.255,6.255,0,0,1-.272,2.481,1.518,1.518,0,0,1-1.709,1.1,1.456,1.456,0,0,1-1.331-1.336l.076-.792a3.149,3.149,0,0,0-2.572-3.962,3.549,3.549,0,0,0-1.088.025,1.566,1.566,0,0,1-1.921-1.265,1.527,1.527,0,0,1,1.235-1.785l.63-.1h.671" fill="#fff"/><path d="M996.991,6418.116a1.12,1.12,0,0,0-1.154,1.054.814.814,0,0,0,.882.811,1.176,1.176,0,0,0,1.159-1.074.843.843,0,0,0-.887-.791m-4.522,6.04a3.231,3.231,0,0,0,2.642-1.412,2.169,2.169,0,0,0-1.432-3.448,3.183,3.183,0,0,0-3.216,1.517,2.3,2.3,0,0,0-.293,1.684,2.242,2.242,0,0,0,2.3,1.659m2.138,3.029a8,8,0,0,1-4.976-1.709,5.8,5.8,0,0,1-1.624-7.053,7.992,7.992,0,0,1,4.623-4.2,8.475,8.475,0,0,1,6.922.156,5.884,5.884,0,0,1,3.449,4.26,5.955,5.955,0,0,1-.847,4.411,8.478,8.478,0,0,1-5.818,3.918c-.575.111-1.155.141-1.729.216" fill="#fff"/></g></svg>