<svg xmlns="http://www.w3.org/2000/svg" width="40.351" height="40.352" viewBox="0 0 40.351 40.352"><g transform="translate(-691.154 -6392.104)"><path d="M728.515,6392.1H694.133a2.941,2.941,0,0,0-2.979,2.909v34.529a2.946,2.946,0,0,0,2.979,2.914h34.382a2.958,2.958,0,0,0,2.99-2.914v-34.529a2.954,2.954,0,0,0-2.99-2.909m-25.4,34.383h-5.984v-19.253h5.984Zm-2.99-21.89a3.469,3.469,0,1,1,3.464-3.469,3.469,3.469,0,0,1-3.464,3.469m25.409,21.89h-5.984v-9.362c0-2.239-.041-5.107-3.111-5.107-3.11,0-3.589,2.43-3.589,4.94v9.529h-5.979v-19.253h5.742v2.626h.075a6.289,6.289,0,0,1,5.662-3.1c6.06,0,7.184,3.987,7.184,9.17Z" fill="#fff"/></g></svg>