<svg xmlns="http://www.w3.org/2000/svg" width="28.407" height="28.407" viewBox="0 0 28.407 28.407"><path d="M4.261,4.261A12.9,12.9,0,0,1,14.2,0a12.9,12.9,0,0,1,9.943,4.261A12.9,12.9,0,0,1,28.407,14.2a12.9,12.9,0,0,1-4.261,9.943A12.9,12.9,0,0,1,14.2,28.407a12.9,12.9,0,0,1-9.943-4.261C1.657,21.306,0,18.228,0,14.2A12.9,12.9,0,0,1,4.261,4.261ZM16.1,25.567q1.42,0,3.551-2.131a10.34,10.34,0,0,0,1.657-4.971,3.92,3.92,0,0,0-1.184-2.841,4.167,4.167,0,0,0-3.077-1.42H14.677a6.912,6.912,0,0,1-2.131-.473,2.149,2.149,0,0,1-.71-1.657,1.23,1.23,0,0,1,.473-.947,1.8,1.8,0,0,1,.947-.473,1.616,1.616,0,0,1,1.184.71c.473.237.71.473.947.473a1.423,1.423,0,0,0,.947-.237,1.423,1.423,0,0,0,.237-.947,3.767,3.767,0,0,0-1.184-2.367,9.792,9.792,0,0,0,1.184-4.5.509.509,0,0,0-.473-.473A7.318,7.318,0,0,0,14.2,2.841,11.842,11.842,0,0,0,8.049,4.735,5.96,5.96,0,0,0,5.918,9.469a6.061,6.061,0,0,0,1.894,4.5,6.467,6.467,0,0,0,4.5,1.894h0v.947a3.039,3.039,0,0,0,.947,2.367,3.447,3.447,0,0,0,2.131,1.42v4.261c0,.237,0,.237.237.473S15.861,25.567,16.1,25.567Z" fill="#fff"/></svg>