<svg xmlns="http://www.w3.org/2000/svg" xmlns:xlink="http://www.w3.org/1999/xlink" width="142.403" height="65.688" viewBox="0 0 142.403 65.688"><defs><radialGradient id="a" cx="0.747" cy="-0.044" r="0.797" gradientTransform="translate(0)" gradientUnits="objectBoundingBox"><stop offset="0.006" stop-color="#d57d31"/><stop offset="0.213" stop-color="#c10e1a"/><stop offset="0.332" stop-color="#b70e17"/><stop offset="0.528" stop-color="#9e1010"/><stop offset="0.775" stop-color="#761404"/><stop offset="0.865" stop-color="#661600"/><stop offset="1" stop-color="#561400"/></radialGradient></defs><path d="M133.011,162.844a32.845,32.845,0,1,1,32.844,32.843A32.843,32.843,0,0,1,133.011,162.844Z" transform="translate(-133.011 -130)" fill="url(#a)"/><g transform="translate(6.154 22.316)"><g transform="translate(37.096 7.202)"><path d="M352.913,274.178s-3.559,8.813-3.838,9.51c-.29-.693-3.869-9-3.869-9h-1.5l5.353,12.528s3.669-9.047,3.965-9.764c.285.717,3.982,9.764,3.982,9.764l5.374-12.528h-1.493s-3.5,8.3-3.808,9c-.278-.706-4.012-9.891-4.012-9.891Z" transform="translate(-343.708 -273.797)" fill="#fff"/></g><path d="M164.264,238.713h-1.272v19.73h1.441v-1.72a5.34,5.34,0,0,0,4.192,1.968c3.334,0,5.747-2.576,5.747-6.137,0-3.528-2.338-6-5.7-6a5.394,5.394,0,0,0-4.239,1.943v-9.783Zm.1,13.866c0-2.784,1.738-4.657,4.328-4.657a4.467,4.467,0,0,1,4.236,4.631c0,2.311-1.5,4.775-4.283,4.775C165.83,257.328,164.365,254.937,164.365,252.579Z" transform="translate(-162.992 -238.713)" fill="#fff"/><g transform="translate(23.424)"><path d="M288.306,238.713h-1.275V248.5a5.4,5.4,0,0,0-4.239-1.943c-3.348,0-5.691,2.472-5.691,6,0,3.561,2.415,6.137,5.748,6.137a5.313,5.313,0,0,0,4.181-1.968v1.72h1.448v-19.73Zm-9.765,13.84a4.455,4.455,0,0,1,4.216-4.631,4.242,4.242,0,0,1,4.355,4.511c0,2.432-1.329,4.9-4.288,4.9C280.035,257.328,278.541,254.865,278.541,252.553Z" transform="translate(-277.101 -238.713)" fill="#fff"/></g><g transform="translate(12.498 2.318)"><path d="M223.876,255.3a5.286,5.286,0,1,0,5.248-5.3A5.267,5.267,0,0,0,223.876,255.3Zm1.293,0a3.989,3.989,0,1,1,3.895,4.014A3.988,3.988,0,0,1,225.169,255.3Z" transform="translate(-223.876 -250.006)" fill="#fff"/></g></g><g transform="translate(69.067 19.969)"><path d="M471.076,228.207h2.915c1.131,0,2.295.518,2.295,1.88a1.667,1.667,0,0,1-1.3,1.64v.022a1.779,1.779,0,0,1,1.616,1.807c0,1.628-1.415,2.135-2.833,2.135h-2.694Zm1.331,3.044h1.214c.888,0,1.331-.381,1.331-.942,0-.644-.443-.962-1.448-.962h-1.1Zm0,3.3h1.225c.686,0,1.638-.118,1.638-1.1,0-.782-.505-1.056-1.582-1.056h-1.28Z" transform="translate(-470.747 -228.017)" fill="#fff"/><path d="M510.289,232.942a3.013,3.013,0,0,1-6.024,0v-4.735h1.329V232.9a1.682,1.682,0,1,0,3.363,0v-4.692h1.332Z" transform="translate(-497.123 -228.017)" fill="#fff"/><path d="M543.266,229.081a1.587,1.587,0,0,0-1.313-.593c-.612,0-1.225.275-1.225.963,0,1.5,3.551.646,3.551,3.308,0,1.605-1.27,2.388-2.739,2.388a3.1,3.1,0,0,1-2.452-1.015l1.006-.972a1.759,1.759,0,0,0,1.481.783c.611,0,1.309-.339,1.309-1.026,0-1.639-3.553-.7-3.553-3.372,0-1.542,1.375-2.261,2.761-2.261a3.077,3.077,0,0,1,2.146.771Z" transform="translate(-524.798 -227.283)" fill="#fff"/><path d="M570.941,228.207h1.333v7.483h-1.333Z" transform="translate(-550.112 -228.017)" fill="#fff"/><path d="M585.4,228.207h1.764l3.627,5.559h.021v-5.559h1.331v7.483h-1.69l-3.7-5.739h-.019v5.739H585.4Z" transform="translate(-561.605 -228.017)" fill="#fff"/><path d="M626.356,228.207h4.958v1.206h-3.626v1.839h3.435v1.2h-3.435v2.03H631.5v1.206h-5.149Z" transform="translate(-594.152 -228.017)" fill="#fff"/><path d="M659.5,229.081a1.57,1.57,0,0,0-1.309-.593c-.611,0-1.225.275-1.225.963,0,1.5,3.551.646,3.551,3.308,0,1.605-1.268,2.388-2.739,2.388a3.1,3.1,0,0,1-2.451-1.015l1-.972a1.766,1.766,0,0,0,1.481.783c.611,0,1.311-.339,1.311-1.026,0-1.639-3.551-.7-3.551-3.372,0-1.542,1.374-2.261,2.758-2.261a3.08,3.08,0,0,1,2.147.771Z" transform="translate(-617.176 -227.283)" fill="#fff"/><path d="M689.042,229.081a1.58,1.58,0,0,0-1.311-.593c-.614,0-1.227.275-1.227.963,0,1.5,3.551.646,3.551,3.308,0,1.605-1.266,2.388-2.737,2.388a3.1,3.1,0,0,1-2.451-1.015l1-.972a1.762,1.762,0,0,0,1.479.783c.613,0,1.309-.339,1.309-1.026,0-1.639-3.548-.7-3.548-3.372,0-1.542,1.371-2.261,2.758-2.261a3.078,3.078,0,0,1,2.146.771Z" transform="translate(-640.653 -227.283)" fill="#fff"/><path d="M734.093,227.281a3.714,3.714,0,0,1,3.983,3.921,3.81,3.81,0,0,1-3.983,3.941,3.931,3.931,0,1,1,0-7.862Zm.01,6.659a2.571,2.571,0,0,0,2.577-2.78,2.575,2.575,0,1,0-5.146,0A2.568,2.568,0,0,0,734.1,233.94Z" transform="translate(-676.63 -227.28)" fill="#fff"/><path d="M774.959,228.207h4.83v1.206h-3.5v1.967h3.3v1.2h-3.3v3.107h-1.331Z" transform="translate(-712.251 -228.017)" fill="#fff"/><path d="M471.076,270.829h2.946a3.571,3.571,0,0,1,3.807,3.742,3.773,3.773,0,0,1-3.963,3.742h-2.79Zm2.324,6.279c1.67,0,3.035-.718,3.035-2.537s-1.184-2.537-2.813-2.537h-1.214v5.074Z" transform="translate(-470.747 -261.89)" fill="#fff"/><path d="M510.121,270.829h4.958v1.2h-3.626v1.841h3.435v1.2h-3.435v2.03h3.815v1.2h-5.147Z" transform="translate(-501.777 -261.89)" fill="#fff"/><path d="M543.266,271.7a1.586,1.586,0,0,0-1.313-.592c-.612,0-1.225.275-1.225.96,0,1.5,3.551.647,3.551,3.311,0,1.6-1.27,2.389-2.739,2.389a3.106,3.106,0,0,1-2.452-1.015l1.006-.972a1.763,1.763,0,0,0,1.481.781c.611,0,1.309-.338,1.309-1.025,0-1.638-3.553-.7-3.553-3.373,0-1.54,1.375-2.26,2.761-2.26a3.077,3.077,0,0,1,2.146.771Z" transform="translate(-524.798 -261.156)" fill="#fff"/><path d="M570.941,270.829h1.333v7.484h-1.333Z" transform="translate(-550.112 -261.89)" fill="#fff"/><path d="M590.492,277.03a6.469,6.469,0,0,1-3.1.74,3.932,3.932,0,1,1,0-7.864,4.276,4.276,0,0,1,2.951.94l-.984.994a2.822,2.822,0,0,0-1.957-.73,2.538,2.538,0,0,0-2.568,2.673,2.569,2.569,0,0,0,2.568,2.781,3.606,3.606,0,0,0,1.756-.39v-1.765H587.63V273.2h2.862Z" transform="translate(-560.048 -261.156)" fill="#fff"/><path d="M625.433,270.829H627.2l3.625,5.561h.021v-5.561h1.332v7.484h-1.69l-3.7-5.739h-.018v5.739h-1.332Z" transform="translate(-593.419 -261.89)" fill="#fff"/><path d="M677.562,270.829h1.456l1.408,5.39h.021l1.678-5.39h1.313l1.649,5.39h.023l1.469-5.39h1.352l-2.179,7.484h-1.27l-1.729-5.7h-.023l-1.736,5.7h-1.225Z" transform="translate(-634.847 -261.89)" fill="#fff"/><path d="M732.1,270.829h4.956v1.2h-3.624v1.841h3.434v1.2h-3.434v2.03h3.815v1.2H732.1Z" transform="translate(-678.187 -261.89)" fill="#fff"/><path d="M763.537,270.829h4.958v1.2h-3.625v1.841H768.3v1.2h-3.435v2.03h3.815v1.2h-5.147Z" transform="translate(-703.174 -261.89)" fill="#fff"/><path d="M794.97,270.829H796.3V274h.064l3.1-3.171h1.8l-3.5,3.457,3.73,4.026h-1.869l-3.245-3.678H796.3v3.678H794.97Z" transform="translate(-728.154 -261.89)" fill="#fff"/><path d="M470.7,310.05a3.907,3.907,0,0,1,1.055,1.318l-.187.107,1.3.019v.707l-3.383-.009-.011-.7h1.556a3.8,3.8,0,0,0-.894-1.067Zm1.831,3.373-2.686-.011v-.7l2.7.011Zm.009.6-.009.7h-2.686v-.7ZM470,318.695v-3.286h2.456l.006,2.578L470.68,318v.7Zm1.785-2.588-1.108.01.008,1.171h1.1Zm.419,2.024a5.467,5.467,0,0,0,2.09-1.2,6.794,6.794,0,0,1-1.081-2.017h-.356v-.659l-.491-.62c.972-.309,1.1-.687,1.017-3.042h2.749v2.121a.184.184,0,0,0,.207.194h.9v.661h-1.149a.642.642,0,0,1-.607-.7l.007-1.579h-1.446c-.047,1.133.211,2.219-1.065,2.9l3.654.02a4.913,4.913,0,0,1-1.35,2.733,6.442,6.442,0,0,0,2.287,1.162l-.609.6a7.66,7.66,0,0,1-2.168-1.279,7.868,7.868,0,0,1-2.16,1.328Zm1.733-3.217a4.977,4.977,0,0,0,.876,1.541,4.337,4.337,0,0,0,.935-1.541Z" transform="translate(-469.473 -293.059)" fill="#fff"/><path d="M514.7,310.908a3.12,3.12,0,0,0-.8-1.1l.554-.416a2.983,2.983,0,0,1,.973,1.413l-.143.089,1.5.018v.708H513.1v-.708Zm1.711,1.94-2.9.009v-.718h2.9Zm-2.89.581h2.874v.709h-2.866Zm2.036,4.6-.012-.465h-1.159v.465l-.671.01v-3.18l2.511-.009v3.178Zm-.012-2.481-1.159.009v1.3h1.159Zm2.767-2.452-1.857-.01v-.7h1.867l-.01-2.89.68.01.01,2.88h2.08v.7l-2.09.01v5.117h-.68Z" transform="translate(-504.144 -292.533)" fill="#fff"/><path d="M557.61,312.687a1.491,1.491,0,0,0,1.626-1.067,3.953,3.953,0,0,0,.168-1.473l.643.135a5.808,5.808,0,0,1-.213,1.629,3.387,3.387,0,0,1,1.213.717l-.4.513a2.978,2.978,0,0,0-1.089-.659,2.251,2.251,0,0,1-1.635.864Zm.142-.931a2.256,2.256,0,0,0,.59-1.221l.518.311a2.99,2.99,0,0,1-.562,1.318Zm6.731,1.446a3.207,3.207,0,0,0-1.561-.834,2.3,2.3,0,0,1-1.465.98l3.385.018-.009,1.647h-.67v-.94l-5.721-.01v1.018h-.68v-1.7h3.556l-.3-.651a1.639,1.639,0,0,0,1.546-1.152,5.609,5.609,0,0,0,.133-1.472l.634.135a5.684,5.684,0,0,1-.152,1.5,4,4,0,0,1,1.742.968Zm-5.327,5.62h-.669l-.01-2.21,2.348-.009a2.569,2.569,0,0,0,.178-.455l-2.114-.01v-1.831l4.811.01.01,1.82h-2.083a2.641,2.641,0,0,1-.1.466l2.659.009v2.124H563.5v-.378h-4.348Zm4.348-1.543-4.348.012v.415H563.5Zm-.465-2.3h-3.481v.475l3.481.012Zm-2.932-3.245a2.373,2.373,0,0,0,.556-1.221l.546.242a3.082,3.082,0,0,1-.474,1.249Zm1.1.039a2.247,2.247,0,0,0,.519-1.308l.56.253a2.9,2.9,0,0,1-.482,1.365Zm2.445-.174a2.1,2.1,0,0,0,.589-1.183l.511.3a2.509,2.509,0,0,1-.556,1.229Z" transform="translate(-539.518 -293.099)" fill="#fff"/><path d="M601.141,314.57l-.02,3.75h-.67l-.008-6.1H602.4a4.279,4.279,0,0,0-.8-.746l.394-.252-2.205-.019-.008-.67,3.606-.007a3.12,3.12,0,0,0-.57-.729l.607-.367a3.1,3.1,0,0,1,.65,1.076l3.669.01-.008.687h-2.349l.4.193a5.677,5.677,0,0,1-.56.824h1.838l-.008,5.1a.769.769,0,0,1-.545.708,8.91,8.91,0,0,1-1.133.028c-.092-.26-.146-.475-.26-.784l1.061.067a.2.2,0,0,0,.187-.222l.01-4.207h-1.721v.65c0,.117.088.155.248.155l1.331.018.009.64h-1.556c-.339,0-.693-.261-.693-.543v-.92h-.663a2.46,2.46,0,0,1-1.008,1.736l2.856.009v2.306h-3.072l-.007-2.17a1.7,1.7,0,0,1-.644.27Zm-.02-.136a2,2,0,0,0,1.563-1.53l-1.543.008Zm1.278-3.227a4.971,4.971,0,0,1,.821,1.028l1.142-.011a4.61,4.61,0,0,0,.67-1.017Zm.339,5.069h1.815v-.931h-1.815Z" transform="translate(-573.034 -292.57)" fill="#fff"/><path d="M645.134,313.173a40.151,40.151,0,0,1-.154,4.97,5.045,5.045,0,0,1-1.115,2.538l-.562-.454a5.2,5.2,0,0,0,1-2.249,15.625,15.625,0,0,0,.118-1.745l-.018-3.759,6.444-.02-.016,7.2c-.043.3-.224.707-.538.785a6.415,6.415,0,0,1-1.087.048l-.258-.754,1.026.009c.08-.009.169-.153.169-.26v-6.319Zm4.757,2.315-.018.689h-1.893l-.006.514h-.652v-.5l-1.974-.018.01-.7h1.955l.008-.787-1.779-.007v-.7l1.771-.009.008-.688h.652l-.01.688h1.776v.7l-1.766-.01v.817Zm-4.054,1.407,3.534.007v2.433l-3.543.01Zm2.884,1.732-.009-1.028H646.5v1.038Z" transform="translate(-607.621 -294.971)" fill="#fff"/></g><g transform="translate(114.819 40.174)"><path d="M694.882,325.71a2.522,2.522,0,1,1-2.522,2.522A2.463,2.463,0,0,1,694.882,325.71Zm0,.412a2.11,2.11,0,1,0,2.11,2.11A2.06,2.06,0,0,0,694.882,326.122Zm.522,3.485-.9-1.162v1.162h-.4v-2.75h.5c.22,0,1.059.008,1.059.787a.754.754,0,0,1-.713.765l.949,1.2Zm-.9-1.515h.162c.242,0,.6-.037.6-.434,0-.434-.367-.449-.617-.449h-.147Z" transform="translate(-692.36 -325.71)" fill="#fff"/></g></svg>